<mxfile host="app.diagrams.net" modified="2024-06-22T09:47:44.002Z" agent="Mozilla/5.0 (Windows NT 10.0; Win64; x64) AppleWebKit/537.36 (KHTML, like Gecko) Chrome/126.0.0.0 Safari/537.36" etag="mTT_gJ8nR-dhiV_FDPSz" version="24.6.1" type="github">
  <diagram name="Strona-1" id="A1JXT3_pkRTk8NxeXpGz">
    <mxGraphModel dx="1050" dy="530" grid="1" gridSize="10" guides="1" tooltips="1" connect="1" arrows="1" fold="1" page="1" pageScale="1" pageWidth="827" pageHeight="1169" math="0" shadow="0">
      <root>
        <mxCell id="0" />
        <mxCell id="1" parent="0" />
        <mxCell id="6hMTWTLqg4_5XvQWgqWG-1" value="Start" style="ellipse;whiteSpace=wrap;html=1;" vertex="1" parent="1">
          <mxGeometry x="340" width="120" height="80" as="geometry" />
        </mxCell>
        <mxCell id="6hMTWTLqg4_5XvQWgqWG-4" value="" style="endArrow=classic;html=1;rounded=0;entryX=0.5;entryY=0;entryDx=0;entryDy=0;" edge="1" parent="1" target="6hMTWTLqg4_5XvQWgqWG-5">
          <mxGeometry width="50" height="50" relative="1" as="geometry">
            <mxPoint x="400" y="80" as="sourcePoint" />
            <mxPoint x="350" y="130" as="targetPoint" />
            <Array as="points" />
          </mxGeometry>
        </mxCell>
        <mxCell id="6hMTWTLqg4_5XvQWgqWG-5" value="Wprowadz 10 licz i zapisz w tab[10]" style="shape=parallelogram;perimeter=parallelogramPerimeter;whiteSpace=wrap;html=1;fixedSize=1;" vertex="1" parent="1">
          <mxGeometry x="300" y="150" width="220" height="60" as="geometry" />
        </mxCell>
        <mxCell id="6hMTWTLqg4_5XvQWgqWG-6" value="i = 0&lt;div&gt;suma = 0&lt;/div&gt;" style="rounded=0;whiteSpace=wrap;html=1;" vertex="1" parent="1">
          <mxGeometry x="340" y="260" width="120" height="60" as="geometry" />
        </mxCell>
        <mxCell id="6hMTWTLqg4_5XvQWgqWG-7" value="" style="endArrow=classic;html=1;rounded=0;exitX=0.471;exitY=0.987;exitDx=0;exitDy=0;exitPerimeter=0;" edge="1" parent="1" source="6hMTWTLqg4_5XvQWgqWG-5">
          <mxGeometry width="50" height="50" relative="1" as="geometry">
            <mxPoint x="390" y="300" as="sourcePoint" />
            <mxPoint x="404" y="260" as="targetPoint" />
          </mxGeometry>
        </mxCell>
        <mxCell id="6hMTWTLqg4_5XvQWgqWG-8" value="" style="endArrow=classic;html=1;rounded=0;" edge="1" parent="1">
          <mxGeometry width="50" height="50" relative="1" as="geometry">
            <mxPoint x="399.5" y="320" as="sourcePoint" />
            <mxPoint x="399.5" y="380" as="targetPoint" />
          </mxGeometry>
        </mxCell>
        <mxCell id="6hMTWTLqg4_5XvQWgqWG-9" value="i &amp;lt; 10" style="rhombus;whiteSpace=wrap;html=1;" vertex="1" parent="1">
          <mxGeometry x="325" y="380" width="150" height="80" as="geometry" />
        </mxCell>
        <mxCell id="6hMTWTLqg4_5XvQWgqWG-10" value="" style="endArrow=classic;html=1;rounded=0;" edge="1" parent="1">
          <mxGeometry width="50" height="50" relative="1" as="geometry">
            <mxPoint x="475" y="420" as="sourcePoint" />
            <mxPoint x="570" y="420" as="targetPoint" />
          </mxGeometry>
        </mxCell>
        <mxCell id="6hMTWTLqg4_5XvQWgqWG-11" value="Tak" style="text;html=1;align=center;verticalAlign=middle;resizable=0;points=[];autosize=1;strokeColor=none;fillColor=none;" vertex="1" parent="1">
          <mxGeometry x="490" y="388" width="40" height="30" as="geometry" />
        </mxCell>
        <mxCell id="6hMTWTLqg4_5XvQWgqWG-12" value="sum = sum + tab[i]&lt;br&gt;i++" style="rounded=0;whiteSpace=wrap;html=1;" vertex="1" parent="1">
          <mxGeometry x="570" y="390" width="120" height="60" as="geometry" />
        </mxCell>
        <mxCell id="6hMTWTLqg4_5XvQWgqWG-13" value="" style="endArrow=classic;html=1;rounded=0;" edge="1" parent="1">
          <mxGeometry width="50" height="50" relative="1" as="geometry">
            <mxPoint x="640" y="388" as="sourcePoint" />
            <mxPoint x="400" y="350" as="targetPoint" />
            <Array as="points">
              <mxPoint x="640" y="350" />
            </Array>
          </mxGeometry>
        </mxCell>
        <mxCell id="6hMTWTLqg4_5XvQWgqWG-14" value="" style="endArrow=classic;html=1;rounded=0;" edge="1" parent="1" target="6hMTWTLqg4_5XvQWgqWG-15">
          <mxGeometry width="50" height="50" relative="1" as="geometry">
            <mxPoint x="320" y="418" as="sourcePoint" />
            <mxPoint x="240" y="420" as="targetPoint" />
          </mxGeometry>
        </mxCell>
        <mxCell id="6hMTWTLqg4_5XvQWgqWG-15" value="Wypisz sumÄ™" style="rounded=0;whiteSpace=wrap;html=1;" vertex="1" parent="1">
          <mxGeometry x="130" y="388" width="120" height="60" as="geometry" />
        </mxCell>
        <mxCell id="6hMTWTLqg4_5XvQWgqWG-16" value="Nie" style="text;html=1;align=center;verticalAlign=middle;resizable=0;points=[];autosize=1;strokeColor=none;fillColor=none;" vertex="1" parent="1">
          <mxGeometry x="270" y="388" width="40" height="30" as="geometry" />
        </mxCell>
        <mxCell id="6hMTWTLqg4_5XvQWgqWG-17" value="" style="endArrow=classic;html=1;rounded=0;" edge="1" parent="1" target="6hMTWTLqg4_5XvQWgqWG-18">
          <mxGeometry width="50" height="50" relative="1" as="geometry">
            <mxPoint x="180" y="450" as="sourcePoint" />
            <mxPoint x="180" y="500" as="targetPoint" />
          </mxGeometry>
        </mxCell>
        <mxCell id="6hMTWTLqg4_5XvQWgqWG-18" value="Koniec" style="ellipse;whiteSpace=wrap;html=1;aspect=fixed;" vertex="1" parent="1">
          <mxGeometry x="140" y="490" width="80" height="80" as="geometry" />
        </mxCell>
      </root>
    </mxGraphModel>
  </diagram>
</mxfile>
